<svg width="25" height="25" viewBox="0 0 25 25" fill="none" xmlns="http://www.w3.org/2000/svg">
<path d="M20.7177 1.5625H4.30173C2.78806 1.5625 1.56247 2.78809 1.56247 4.29688C1.55759 4.29688 1.56247 4.10156 1.56247 20.7031C1.56247 22.2119 2.78806 23.4375 4.29685 23.4375H20.7129C22.2168 23.4277 23.4326 22.207 23.4326 20.7031V4.29688C23.4375 2.79297 22.2217 1.57227 20.7177 1.5625ZM11.1816 18.1299C11.1718 18.8477 10.5908 19.4287 9.86814 19.4287H5.83005C5.10739 19.4336 4.51657 18.8525 4.51169 18.1299V5.71777C4.51169 4.99512 5.09763 4.4043 5.82517 4.4043H9.87302C10.5957 4.4043 11.1865 4.99023 11.1865 5.71777V18.1299H11.1816ZM20.6103 12.6611C20.6103 13.3838 20.0244 13.9746 19.2968 13.9746H15.3418C14.6191 13.9746 14.0283 13.3887 14.0283 12.6611V5.72266C14.0283 5 14.6142 4.40918 15.3369 4.40918H19.2968C20.0195 4.40918 20.6103 4.99512 20.6103 5.72266V12.6611Z" fill="white"/>
</svg>
